<?xml version="1.0" encoding="UTF-8"?>
<svg xmlns="http://www.w3.org/2000/svg" xmlns:xlink="http://www.w3.org/1999/xlink" width="15pt" height="15pt" viewBox="0 0 15 15" version="1.1">
<g id="surface1">
<path style=" stroke:none;fill-rule:nonzero;fill:rgb(100%,100%,100%);fill-opacity:1;" d="M 14.4375 7.394531 C 14.4375 11.398438 11.234375 14.648438 7.289062 14.648438 C 3.339844 14.648438 0.140625 11.398438 0.140625 7.394531 C 0.140625 3.386719 3.339844 0.140625 7.289062 0.140625 C 11.234375 0.140625 14.4375 3.386719 14.4375 7.394531 Z M 14.4375 7.394531 "/>
<path style=" stroke:none;fill-rule:evenodd;fill:rgb(0%,49.803922%,0%);fill-opacity:1;" d="M 7.503906 0.0078125 C 11.59375 0.0078125 14.929688 3.359375 14.929688 7.464844 C 14.929688 11.574219 11.59375 14.925781 7.503906 14.925781 C 3.414062 14.925781 0.078125 11.574219 0.078125 7.464844 C 0.078125 3.359375 3.414062 0.0078125 7.503906 0.0078125 Z M 4.191406 4.71875 L 5.8125 4.71875 L 5.8125 2.578125 C 5.8125 2.292969 5.984375 2.058594 6.199219 2.058594 C 6.414062 2.058594 6.589844 2.292969 6.589844 2.578125 L 6.589844 4.71875 L 8.496094 4.71875 L 8.496094 2.578125 C 8.496094 2.292969 8.671875 2.058594 8.882812 2.058594 C 9.097656 2.058594 9.273438 2.292969 9.273438 2.578125 L 9.273438 4.71875 L 10.816406 4.71875 C 11.039062 4.71875 11.21875 4.964844 11.21875 5.265625 C 11.21875 5.570312 11.039062 5.816406 10.816406 5.816406 L 10.34375 5.816406 L 10.34375 8.046875 C 10.34375 8.648438 9.851562 9.140625 9.253906 9.140625 L 7.910156 9.140625 C 7.90625 9.164062 7.832031 9.152344 7.828125 9.171875 C 8.328125 9.578125 7.859375 10.578125 8.210938 10.914062 C 8.511719 11.203125 9 11.460938 9.207031 11.683594 C 10.402344 12.972656 9.867188 13.191406 8.742188 12.453125 C 8.335938 12.191406 8.140625 11.824219 7.464844 11.3125 C 6.96875 10.933594 7.714844 9.722656 7.0625 9.207031 C 7.046875 9.195312 6.941406 9.164062 6.941406 9.140625 L 5.753906 9.140625 C 5.152344 9.140625 4.664062 8.648438 4.664062 8.046875 L 4.664062 5.816406 L 4.191406 5.816406 C 3.96875 5.816406 3.789062 5.570312 3.789062 5.265625 C 3.789062 4.964844 3.96875 4.71875 4.191406 4.71875 Z M 4.191406 4.71875 "/>
</g>
</svg>
